<svg width="41" height="41" viewBox="0 0 41 41" fill="none" xmlns="http://www.w3.org/2000/svg">
<path d="M20.5 3.84375C11.3013 3.84375 3.84375 11.3013 3.84375 20.5C3.84375 28.365 9.29675 34.9525 16.6274 36.6988C16.2482 36.6085 15.8721 36.5073 15.5031 36.392V32.5758C15.5031 32.5758 14.8785 32.784 14.0457 32.784C11.7157 32.784 10.7478 30.7052 10.5062 29.6609C10.3595 29.0248 9.97645 28.422 9.56517 28.0536C9.07381 27.6154 8.84383 27.6141 8.84063 27.4642C8.83422 27.1497 9.26216 27.1625 9.46523 27.1625C10.5062 27.1625 11.2955 28.2701 11.6619 28.8429C12.5697 30.2567 13.5441 30.4937 14.0457 30.4937C14.6703 30.4937 15.2097 30.4002 15.5813 30.2208C15.753 29.0113 16.2911 27.9338 17.1687 27.1625C13.2629 26.3816 10.5062 24.1413 10.5062 20.5C10.5062 18.6243 11.259 16.9003 12.5133 15.5083C12.3852 15.145 12.1719 14.4102 12.1719 13.2129C12.1719 12.4217 12.227 11.4505 12.5883 10.5062C12.5883 10.5062 14.9637 10.5229 17.204 12.6447C18.238 12.3436 19.3443 12.1719 20.5 12.1719C21.6557 12.1719 22.762 12.3436 23.796 12.6447C26.0363 10.5229 28.4117 10.5062 28.4117 10.5062C28.775 11.4505 28.8281 12.4217 28.8281 13.2129C28.8281 14.5038 28.6564 15.2565 28.5514 15.5813C29.7673 16.9605 30.4937 18.6576 30.4937 20.5C30.4937 24.1413 27.7371 26.3816 23.8313 27.1625C24.8742 28.0786 25.4969 29.413 25.4969 30.9102V36.392C25.1279 36.5079 24.7525 36.6085 24.3726 36.6988C31.7032 34.9525 37.1562 28.365 37.1562 20.5C37.1562 11.3013 29.6987 3.84375 20.5 3.84375ZM21.6615 37.1114C21.2777 37.1383 20.8908 37.1562 20.5 37.1562C20.8908 37.1562 21.2771 37.1377 21.6615 37.1114ZM20.5 37.1562C20.1092 37.1562 19.7223 37.1383 19.3385 37.1114C19.7229 37.1377 20.1092 37.1562 20.5 37.1562ZM19.0829 37.0922C18.3033 37.0262 17.5384 36.907 16.7933 36.7373C17.539 36.9064 18.3033 37.0262 19.0829 37.0922Z" fill="white"/>
</svg>
