<svg width="41" height="41" viewBox="0 0 41 41" fill="none" xmlns="http://www.w3.org/2000/svg">
<path d="M28.3437 12.8638C28.3514 12.8638 28.3616 12.8638 28.3719 12.8638C28.6397 12.8638 28.8882 12.947 29.092 13.0905L29.0881 13.088C29.2367 13.2174 29.3367 13.3993 29.361 13.6043V13.6082C29.3866 13.7645 29.4007 13.9439 29.4007 14.1271C29.4007 14.2104 29.3982 14.2924 29.3918 14.3744V14.3628C29.1035 17.3981 27.853 24.7589 27.2175 28.1568C26.9484 29.5956 26.4193 30.0774 25.9068 30.1235C24.7934 30.2273 23.9477 29.388 22.8689 28.6808C21.1802 27.5725 20.2257 26.8832 18.587 25.8031C16.692 24.5565 17.9207 23.8684 18.9996 22.7486C19.2827 22.4539 24.1912 17.9888 24.2873 17.5839C24.2924 17.5595 24.295 17.5326 24.295 17.5044C24.295 17.4045 24.2578 17.3135 24.1976 17.2444C24.131 17.2008 24.0477 17.1765 23.9606 17.1765C23.9029 17.1765 23.8478 17.188 23.7965 17.2072L23.7991 17.2059C23.63 17.2444 20.9325 19.027 15.7067 22.5539C15.1366 23.0036 14.4165 23.288 13.6324 23.3213H13.6247C12.5139 23.1868 11.5055 22.9395 10.5484 22.5872L10.6432 22.6179C9.44143 22.2259 8.48689 22.0196 8.56889 21.3559C8.61246 21.0108 9.08823 20.6576 9.99621 20.2963C15.5893 17.8594 19.319 16.2531 21.1854 15.4775C23.2443 14.3846 25.6313 13.4852 28.1413 12.9022L28.3424 12.8625L28.3437 12.8638ZM20.4102 1.31329C9.77327 1.33892 1.15942 9.96814 1.15942 20.6089C1.15942 31.2651 9.79761 39.9045 20.4551 39.9045C31.1125 39.9045 39.7507 31.2664 39.7507 20.6089C39.7507 9.96814 31.1368 1.33892 20.5025 1.31329H20.4999C20.47 1.31329 20.4401 1.31329 20.4102 1.31329Z" fill="white"/>
</svg>
