<svg width="42" height="41" viewBox="0 0 42 41" fill="none" xmlns="http://www.w3.org/2000/svg">
<path d="M20.9999 1.64001C10.347 1.64001 1.67993 10.1008 1.67993 20.5C1.67993 30.8993 10.347 39.36 20.9999 39.36C31.6536 39.36 40.3199 30.8993 40.3199 20.5C40.3199 10.1008 31.6536 1.64001 20.9999 1.64001ZM29.3772 24.2187C31.2563 25.8472 31.6469 26.4286 31.7108 26.5278C32.4894 27.7332 30.8472 27.88 30.8472 27.88H27.3864C27.3864 27.88 26.5439 27.889 25.824 27.4233C24.6506 26.673 23.4216 25.2183 22.5581 25.4709C21.8332 25.6824 21.8399 26.6385 21.8399 27.4561C21.8399 27.7488 21.582 27.88 20.9999 27.88C20.4178 27.88 20.1759 27.88 19.918 27.88C18.0221 27.88 15.965 27.2568 13.9128 25.1634C11.0098 22.204 8.46377 16.2426 8.46377 16.2426C8.46377 16.2426 8.31341 15.9425 8.47721 15.7596C8.66285 15.5546 9.16769 15.5808 9.16769 15.5808L12.5235 15.58C12.5235 15.58 12.8393 15.6382 13.0661 15.794C13.2534 15.922 13.3576 16.1663 13.3576 16.1663C13.3576 16.1663 13.9212 17.9834 14.6394 19.1421C16.0422 21.4037 16.6949 21.4611 17.1712 21.2175C17.8667 20.8649 17.6399 18.4607 17.6399 18.4607C17.6399 18.4607 17.671 17.4283 17.3081 16.9683C17.0284 16.6124 16.4933 16.423 16.2598 16.3935C16.0708 16.3697 16.3866 16.0466 16.789 15.8621C17.3266 15.6284 18.0582 15.5685 19.3199 15.58C20.3019 15.589 20.585 15.6464 20.968 15.7325C22.1264 15.9933 21.8399 16.6813 21.8399 19.097C21.8399 19.8711 21.7307 20.9592 22.3288 21.32C22.5867 21.4758 23.4704 21.6661 25.0428 19.1733C25.7896 17.9908 26.3835 16.0294 26.3835 16.0294C26.3835 16.0294 26.5061 15.8137 26.6968 15.7071C26.8917 15.5981 26.8858 15.6005 27.1529 15.6005C27.42 15.6005 30.0988 15.58 30.6868 15.58C31.274 15.58 31.825 15.5735 31.9199 15.9097C32.056 16.3926 31.4865 18.0474 30.0434 19.8432C27.672 22.7903 27.4091 22.5148 29.3772 24.2187Z" fill="white"/>
</svg>
